/* XPM */
static char *_2131_080242443160bf21a68fb4b15ab1dc1526c79c7adef430dc654f2787c9b09436_0[] = {
/* columns rows colors chars-per-pixel */
"32 32 5 1 ",
"  c black",
". c #808080",
"X c #C0C0C0",
"o c white",
"O c None",
/* pixels */
"OOOOOOOOOOOOOOOOOOOOOOOOOOOOOOOO",
"OOOOOOOOOOOOOOOOOOOOOOOOOOOOOOOO",
"OOOOOOOOOOOOOOOOOOOOOOOOOOOOOOOO",
"OOOOOOOOOOOOOOOOOOOOOOOOOOOOOOOO",
"OOOOOOOOOOOOOOOOOOO .. OOOOOOOOO",
"OOOOOOOOOOOOOOOOOO..XXX OOOOOOOO",
"OOOOOOOOOOOOOOO ..XXXXXX OOOOOOO",
"OOOOOOOOOOOOOO..XXXXXXXXX OOOOOO",
"OOOOOOOOOOO ..XXXXXXXXXX.. OOOOO",
"OOOOOOOOOO..XXXXXXXXXXXXXX. OOOO",
"OOOOOOO ..XXXXXXXXXXXXXXXX.. OOO",
"OOOOOO..XXXXXXXXXXXXXXXXXXX.. OO",
"OOO ..XXXXXXXXXXXXXXXXXXXXXX.. O",
"OO..XXXXXXXXXXXXXXXXXXXXXXX... O",
"O.oXXXXXXXXXXXXXXXXXXXXXX... . O",
"O.oXXXXXXXXXXXXXXXXXXXX.... X  O",
"O.XoXXXXXXXXXXXXXXXXX... .. .  O",
"O.XXo...XXXXXXXXXXX.... X . . OO",
"O.XX..XX.XXXXXXXX... .. .   . OO",
"OO X..X.XXXXXXX.... X . . O . OO",
"OOO ..X.XXXXX... .. .   . OO OOO",
"OOOO  X.oXX.... X . . O . OOOOOO",
"OOOOOO .Xo.. .. .   . OO OOOOOOO",
"OOOOOOO.XX. X . . O . OOOOOOOOOO",
"OOOOOOO XX. .   . OO OOOOOOOOOOO",
"OOOOOOOO X. . O . OOOOOOOOOOOOOO",
"OOOOOOOOO   . OO OOOOOOOOOOOOOOO",
"OOOOOOOOOOO . OOOOOOOOOOOOOOOOOO",
"OOOOOOOOOOOO OOOOOOOOOOOOOOOOOOO",
"OOOOOOOOOOOOOOOOOOOOOOOOOOOOOOOO",
"OOOOOOOOOOOOOOOOOOOOOOOOOOOOOOOO",
"OOOOOOOOOOOOOOOOOOOOOOOOOOOOOOOO"
};
